<svg width="35" height="24" viewBox="0 0 35 24" fill="none" xmlns="http://www.w3.org/2000/svg">
<path d="M12.9008 11.6733C13.2443 11.6733 13.5311 11.5572 13.7615 11.3248C13.9918 11.0925 14.1069 10.8046 14.1069 10.4611C14.1069 10.1177 13.9908 9.83079 13.7584 9.60047C13.5261 9.37015 13.2382 9.25499 12.8947 9.25499C12.5513 9.25499 12.2644 9.37116 12.0341 9.60351C11.8038 9.83585 11.6886 10.1237 11.6886 10.4672C11.6886 10.8106 11.8048 11.0975 12.0371 11.3278C12.2695 11.5582 12.5574 11.6733 12.9008 11.6733ZM17.5647 11.6733C17.9082 11.6733 18.1951 11.5572 18.4254 11.3248C18.6557 11.0925 18.7709 10.8046 18.7709 10.4611C18.7709 10.1177 18.6547 9.83079 18.4223 9.60047C18.19 9.37015 17.9021 9.25499 17.5587 9.25499C17.2152 9.25499 16.9283 9.37116 16.698 9.60351C16.4677 9.83585 16.3525 10.1237 16.3525 10.4672C16.3525 10.8106 16.4687 11.0975 16.701 11.3278C16.9334 11.5582 17.2213 11.6733 17.5647 11.6733ZM22.0559 11.6733C22.3994 11.6733 22.6863 11.5572 22.9166 11.3248C23.1469 11.0925 23.262 10.8046 23.262 10.4611C23.262 10.1177 23.1459 9.83079 22.9135 9.60047C22.6812 9.37015 22.3933 9.25499 22.0498 9.25499C21.7064 9.25499 21.4195 9.37116 21.1892 9.60351C20.9589 9.83585 20.8437 10.1237 20.8437 10.4672C20.8437 10.8106 20.9599 11.0975 21.1922 11.3278C21.4246 11.5582 21.7125 11.6733 22.0559 11.6733ZM7 23V4.3443C7 3.71154 7.226 3.16263 7.678 2.69759C8.12999 2.23253 8.6772 2 9.31962 2H25.6557C26.2885 2 26.8374 2.23253 27.3024 2.69759C27.7675 3.16263 28 3.71154 28 4.3443V16.7321C28 17.3581 27.7675 17.9011 27.3024 18.3614C26.8374 18.8216 26.2885 19.0517 25.6557 19.0517H10.9483L7 23ZM9.31962 17.9166L10.5041 16.7321H25.6557V4.3443H9.31962V17.9166Z" fill="#364047"/>
</svg>
