<svg width="35" height="24" viewBox="0 0 35 24" fill="none" xmlns="http://www.w3.org/2000/svg">
<g clip-path="url(#clip0_7_21)">
<path fill-rule="evenodd" clip-rule="evenodd" d="M11.5 17.5C8.46243 17.5 6 15.0376 6 12C6 8.96243 8.46243 6.5 11.5 6.5C14.5376 6.5 17 8.96243 17 12C17 13.0018 16.7322 13.941 16.2642 14.75H18.7358C18.2678 13.941 18 13.0018 18 12C18 8.96243 20.4624 6.5 23.5 6.5C26.5376 6.5 29 8.96243 29 12C29 15.0376 26.5376 17.5 23.5 17.5H11.5ZM11.5 14.75C13.0188 14.75 14.25 13.5188 14.25 12C14.25 10.4812 13.0188 9.25 11.5 9.25C9.98122 9.25 8.75 10.4812 8.75 12C8.75 13.5188 9.98122 14.75 11.5 14.75ZM23.5 14.75C25.0188 14.75 26.25 13.5188 26.25 12C26.25 10.4812 25.0188 9.25 23.5 9.25C21.9812 9.25 20.75 10.4812 20.75 12C20.75 13.5188 21.9812 14.75 23.5 14.75Z" fill="#6E7A82"/>
</g>
<defs>
<clipPath id="clip0_7_21">
<rect width="35" height="24" fill="white"/>
</clipPath>
</defs>
</svg>
