<svg width="35" height="24" viewBox="0 0 35 24" fill="none" xmlns="http://www.w3.org/2000/svg">
<g clip-path="url(#clip0_7_26)">
<mask id="mask0_7_26" style="mask-type:luminance" maskUnits="userSpaceOnUse" x="5" y="0" width="25" height="24">
<path d="M29.5 0H5.5V24H29.5V0Z" fill="white"/>
</mask>
<g mask="url(#mask0_7_26)">
<path fill-rule="evenodd" clip-rule="evenodd" d="M20 0.000158754C20.2761 0.000163911 20.5 0.22402 20.5 0.500159V1.50017C20.5 1.77631 20.2761 2.00017 20 2.00017H11.5C10.3954 2.00017 9.5 2.8956 9.5 4.00017V15.5002C9.5 15.7763 9.27614 16.0002 9 16.0002H8C7.72386 16.0002 7.5 15.7763 7.5 15.5002V4C7.5 1.79083 9.29091 -4.1259e-05 11.5001 7.12919e-10L20 0.000158754ZM11.5 5.99993C11.5 4.89536 12.3954 3.99993 13.5 3.99993H21.0858C21.351 3.99993 21.6054 4.10528 21.7929 4.29282L27.2071 9.70703C27.3946 9.89457 27.5 10.1489 27.5 10.4141V21.9999C27.5 23.1045 26.6046 23.9999 25.5 23.9999H13.5C12.3954 23.9999 11.5 23.1045 11.5 21.9999V5.99993ZM20.5 4.99993L26.5 10.9999H21.5C20.9477 10.9999 20.5 10.5522 20.5 9.99993V4.99993Z" fill="#6E7A82"/>
</g>
</g>
<defs>
<clipPath id="clip0_7_26">
<rect width="35" height="24" fill="white"/>
</clipPath>
</defs>
</svg>
