<svg width="35" height="24" viewBox="0 0 35 24" fill="none" xmlns="http://www.w3.org/2000/svg">
<g clip-path="url(#clip0_7_41)">
<path fill-rule="evenodd" clip-rule="evenodd" d="M21.7957 10.9119C21.5428 9.82567 21.9327 8.67558 22.7593 8.06977L26.2403 5.16381C26.8192 4.7395 27.5812 5.18565 27.6207 5.97204L28.4985 15.1458C28.5364 15.9014 27.876 16.4462 27.2645 16.1638L23.6798 15.0637C22.894 14.7008 22.3032 13.9348 22.0845 12.9955L21.7957 10.9119ZM6.52561 12.1499C6.35791 10.9783 7.03086 9.86503 8.04619 9.63439L18.4703 6.97285C19.6304 6.7093 20.7195 7.70144 20.7586 9.05741L21.1522 15.7249C21.1522 19.0249 18.0797 19.5749 18.0797 19.5749H11.6722C9.62379 19.5749 8.57397 19.4111 8.04619 17.2111L6.52561 12.1499Z" fill="#6E7A82"/>
</g>
<defs>
<clipPath id="clip0_7_41">
<rect width="35" height="24" fill="white"/>
</clipPath>
</defs>
</svg>
