<svg width="35" height="24" viewBox="0 0 35 24" fill="none" xmlns="http://www.w3.org/2000/svg">
<g clip-path="url(#clip0_7_73)">
<path fill-rule="evenodd" clip-rule="evenodd" d="M28.5 12.0002C28.5 18.0754 23.5751 23.0002 17.5 23.0002C11.4249 23.0002 6.5 18.0754 6.5 12.0002C6.5 5.92511 11.4249 1.00024 17.5 1.00024C23.5751 1.00024 28.5 5.92511 28.5 12.0002ZM18.113 13.6254C18.1037 13.6081 18.0927 13.5895 18.0807 13.5693C18.0165 13.4616 17.9248 13.3075 17.9308 13.0546C17.9308 12.4813 18.5163 12.1556 19.1759 11.7887C20.0264 11.3156 21 10.774 21 9.54461C21 8.21729 19.6983 7 17.5799 7C16.1379 7 14.9007 7.69027 14.0455 8.55927C14.0032 8.60218 13.9722 8.71578 14.0381 8.80193C14.1294 8.89029 14.2341 8.99449 14.3562 9.11607C14.5273 9.28632 14.7326 9.49074 14.9834 9.73337C15.0476 9.79381 15.1564 9.69909 15.1749 9.67846C15.723 9.06603 16.3865 8.53379 17.3949 8.53379C18.471 8.53379 19.0484 9.24965 19.0484 9.82483C19.0484 10.3951 18.5066 10.7426 17.916 11.1214C17.2084 11.5752 16.4307 12.074 16.4307 13.0546V13.0832C16.4305 13.3599 16.4303 13.7827 16.5675 14.081C16.5798 14.1076 16.6111 14.0923 16.6802 14.0586C16.8337 13.9836 17.174 13.8173 17.907 13.8173C17.94 13.8207 18.1763 13.7608 18.113 13.6254ZM17.2183 16.9999C17.6986 16.9999 18.1031 16.6101 18.1031 16.1611C18.1031 15.724 17.6986 15.3459 17.2183 15.3459C16.738 15.3459 16.3335 15.724 16.3335 16.1611C16.3335 16.6101 16.738 16.9999 17.2183 16.9999Z" fill="#6E7A82"/>
</g>
<defs>
<clipPath id="clip0_7_73">
<rect width="35" height="24" fill="white"/>
</clipPath>
</defs>
</svg>
