<svg width="35" height="24" viewBox="0 0 35 24" fill="none" xmlns="http://www.w3.org/2000/svg">
<g clip-path="url(#clip0_7_64)">
<path fill-rule="evenodd" clip-rule="evenodd" d="M4.72973 5.37838V14.8378C4.72973 16.0922 5.22804 17.2953 6.11504 18.1823C7.00203 19.0693 8.20506 19.5676 9.45946 19.5676H28.3784C28.3784 20.5711 27.9797 21.5335 27.2701 22.2431C26.5605 22.9527 25.5981 23.3514 24.5946 23.3514H4.72973C3.47533 23.3514 2.2723 22.853 1.38531 21.966C0.498309 21.0791 0 19.876 0 18.6216L0 10.1081C7.04186e-05 8.88929 0.470647 7.71755 1.3136 6.83724C2.15655 5.95693 3.30679 5.43601 4.52446 5.38311L4.72973 5.37838ZM30.2703 0.648651C31.5247 0.648651 32.7277 1.14696 33.6147 2.03396C34.5017 2.92095 35 4.12398 35 5.37838V12.9459C35 14.2004 34.5017 15.4034 33.6147 16.2904C32.7277 17.1774 31.5247 17.6757 30.2703 17.6757H10.4054C9.40188 17.6757 8.43946 17.277 7.72987 16.5674C7.02027 15.8578 6.62162 14.8954 6.62162 13.8919V5.37838C6.62162 4.12398 7.11993 2.92095 8.00693 2.03396C8.89392 1.14696 10.0969 0.648651 11.3514 0.648651L30.2703 0.648651Z" fill="#88969E"/>
<path fill-rule="evenodd" clip-rule="evenodd" d="M25.0676 5.37838C25.0676 5.50382 25.1174 5.62412 25.2061 5.71282C25.2948 5.80152 25.4151 5.85135 25.5405 5.85135L29.7964 5.85041L29.7973 10.1081C29.7973 10.2335 29.8471 10.3539 29.9358 10.4426C30.0245 10.5313 30.1448 10.5811 30.2703 10.5811H30.7432C30.8687 10.5811 30.989 10.5313 31.0777 10.4426C31.1664 10.3539 31.2162 10.2335 31.2162 10.1081V5.38784C31.2162 5.38469 31.2162 5.38153 31.2162 5.37838V4.90541C31.2162 4.77997 31.1664 4.65966 31.0777 4.57096C30.989 4.48227 30.8687 4.43243 30.7432 4.43243H25.5405C25.4151 4.43243 25.2948 4.48227 25.2061 4.57096C25.1174 4.65966 25.0676 4.77997 25.0676 4.90541V5.37838Z" fill="#F4F5F6"/>
<path fill-rule="evenodd" clip-rule="evenodd" d="M25.0676 10.5811C25.1563 10.6697 25.2765 10.7196 25.402 10.7196C25.5274 10.7196 25.6477 10.6697 25.7364 10.5811L31.0876 5.22986C31.1327 5.18623 31.1688 5.13404 31.1936 5.07634C31.2184 5.01863 31.2314 4.95657 31.2319 4.89377C31.2325 4.83097 31.2205 4.76869 31.1967 4.71056C31.173 4.65243 31.1378 4.59963 31.0934 4.55522C31.049 4.51081 30.9962 4.47569 30.9381 4.45191C30.88 4.42813 30.8177 4.41616 30.7549 4.4167C30.6921 4.41725 30.63 4.4303 30.5723 4.45509C30.5146 4.47987 30.4624 4.51591 30.4188 4.56108L25.0676 9.9123C24.9789 10.001 24.9291 10.1213 24.9291 10.2467C24.9291 10.3721 24.9789 10.4924 25.0676 10.5811Z" fill="#F4F5F6"/>
</g>
<defs>
<clipPath id="clip0_7_64">
<rect width="35" height="24" fill="white"/>
</clipPath>
</defs>
</svg>
