<svg width="35" height="24" viewBox="0 0 35 24" fill="none" xmlns="http://www.w3.org/2000/svg">
<g clip-path="url(#clip0_7_46)">
<path fill-rule="evenodd" clip-rule="evenodd" d="M26.7421 14.1947H25.5599C25.371 14.8846 25.0941 15.5392 24.7473 16.1412L25.5951 16.9892C26.2807 17.6747 26.2807 18.7907 25.5951 19.4761L24.971 20.0957C24.2855 20.7855 23.1736 20.7855 22.488 20.0957L21.631 19.2433C21.029 19.5816 20.3829 19.8584 19.6974 20.0429V21.2425C19.6974 22.2091 18.9107 23 17.9395 23H17.0605C16.0893 23 15.3026 22.2091 15.3026 21.2425V20.0429C14.6215 19.854 13.9803 19.5816 13.3777 19.2389L12.5208 20.0957C11.8352 20.7855 10.7233 20.7855 10.0377 20.0957L9.4137 19.4761C8.72813 18.7907 8.72813 17.6747 9.4137 16.9892L10.2619 16.1412C9.91514 15.5349 9.63783 14.8846 9.44886 14.1947H8.25789C7.28666 14.1947 6.5 13.4082 6.5 12.4372V11.5584C6.5 10.5874 7.28666 9.80088 8.25789 9.80088H9.44447C9.62905 9.11544 9.90591 8.46954 10.2487 7.86319L9.4137 7.02836C8.72813 6.34292 8.72813 5.23128 9.4137 4.54144L10.0377 3.92191C10.7233 3.23647 11.8352 3.23647 12.5208 3.92191L13.3558 4.75235C13.9622 4.40523 14.6127 4.12842 15.3026 3.93948V2.75754C15.3026 1.7865 16.0893 1 17.0605 1H17.9395C18.9107 1 19.6974 1.7865 19.6974 2.75754V3.93948C20.3917 4.12403 21.0465 4.40523 21.653 4.75235L22.488 3.92191C23.1736 3.23647 24.2855 3.23647 24.971 3.92191L25.5951 4.54144C26.2807 5.23128 26.2807 6.34292 25.5951 7.02836L24.7601 7.86319C25.1029 8.46515 25.3797 9.11544 25.5687 9.80088H26.7421C27.7138 9.80088 28.5 10.5874 28.5 11.5584V12.4372C28.5 13.4082 27.7138 14.1947 26.7421 14.1947ZM17.5023 7.60001C15.0704 7.60001 13.1014 9.57207 13.1014 12C13.1014 14.4313 15.0704 16.4034 17.5023 16.4034C19.934 16.4034 21.9031 14.4313 21.9031 12C21.9031 9.57207 19.934 7.60001 17.5023 7.60001ZM17.5023 14.2C18.7175 14.2 19.7027 13.215 19.7027 12C19.7027 10.785 18.7175 9.79998 17.5023 9.79998C16.287 9.79998 15.3018 10.785 15.3018 12C15.3018 13.215 16.287 14.2 17.5023 14.2Z" fill="#6E7A82"/>
</g>
<defs>
<clipPath id="clip0_7_46">
<rect width="35" height="24" fill="white"/>
</clipPath>
</defs>
</svg>
