<svg width="35" height="24" viewBox="0 0 35 24" fill="none" xmlns="http://www.w3.org/2000/svg">
<g clip-path="url(#clip0_7_15)">
<path fill-rule="evenodd" clip-rule="evenodd" d="M17.5 22C23.0228 22 27.5 17.5228 27.5 12C27.5 6.47715 23.0228 2 17.5 2C11.9771 2 7.5 6.47715 7.5 12C7.5 14.4772 8.40077 16.7441 9.89264 18.4909C10.0783 18.7082 9.35898 19.8443 8.66164 20.8387C8.36427 21.2628 8.82924 21.8595 9.31154 21.6707C10.6575 21.1438 12.3166 20.5622 12.655 20.75C14.0903 21.5465 15.7422 22 17.5 22Z" fill="#6E7A82"/>
<path fill-rule="evenodd" clip-rule="evenodd" d="M15 12C15 12.6904 14.4404 13.25 13.75 13.25C13.0596 13.25 12.5 12.6904 12.5 12C12.5 11.3096 13.0596 10.75 13.75 10.75C14.4404 10.75 15 11.3096 15 12ZM22.5 12C22.5 12.6904 21.9404 13.25 21.25 13.25C20.5596 13.25 20 12.6904 20 12C20 11.3096 20.5596 10.75 21.25 10.75C21.9404 10.75 22.5 11.3096 22.5 12ZM17.5 13.25C18.1904 13.25 18.75 12.6904 18.75 12C18.75 11.3096 18.1904 10.75 17.5 10.75C16.8096 10.75 16.25 11.3096 16.25 12C16.25 12.6904 16.8096 13.25 17.5 13.25Z" fill="white"/>
</g>
<defs>
<clipPath id="clip0_7_15">
<rect width="35" height="24" fill="white"/>
</clipPath>
</defs>
</svg>
