<svg width="35" height="24" viewBox="0 0 35 24" fill="none" xmlns="http://www.w3.org/2000/svg">
<g clip-path="url(#clip0_7_35)">
<path fill-rule="evenodd" clip-rule="evenodd" d="M22.1758 11.6017C24.1262 11.5066 25.5384 9.1026 25.4163 6.61432C25.2942 4.12605 23.637 2.28277 21.4826 2.38782C19.3283 2.49287 17.9063 4.27681 18.0284 6.76508C18.1505 9.25335 20.2254 11.6968 22.1758 11.6017ZM19.0137 11.6506C19.1228 11.5777 19.2138 11.5168 19.2879 11.4825C19.6943 13.0538 21.2424 14.8652 22.8286 14.7636C24 14.6885 24.3599 13.7815 24.248 11.8383C24.3768 11.9018 24.403 11.9674 24.4312 12.0379C24.4589 12.1072 24.4885 12.1813 24.6192 12.2627C25.0749 12.5019 25.4723 12.65 25.8227 12.7805C27.1696 13.2824 27.8223 13.5256 28.4249 17.6937C28.5493 18.5547 28.2895 19.4609 27.5856 19.9722C24.0829 22.5165 18.9686 20.8292 15.5796 19.7111C15.2955 19.6174 15.0236 19.5277 14.7657 19.4448C13.8524 19.1512 13.16 18.3095 13.2173 17.3519C13.3468 15.1925 13.7856 14.1218 14.5836 13.1934C15.3386 12.315 16.2876 12.2839 17.1099 12.2569C17.2529 12.2522 17.392 12.2477 17.5256 12.2388C18.2016 12.1939 18.688 11.8685 19.0137 11.6506Z" fill="#6E7A82"/>
<path fill-rule="evenodd" clip-rule="evenodd" d="M15.0261 6.30005C15.1131 8.0738 14.1065 9.78744 12.7161 9.85523C11.3258 9.92303 9.8467 8.18126 9.75969 6.40752C9.67268 4.63377 10.6863 3.36211 12.222 3.28723C13.7577 3.21234 14.9391 4.52631 15.0261 6.30005ZM10.4623 9.89028C10.2301 10.0456 9.88335 10.2776 9.4015 10.3095C9.30625 10.3159 9.20708 10.3191 9.10518 10.3225C8.51898 10.3417 7.84252 10.3639 7.30433 10.99C6.69374 11.7004 6.37811 12.5276 6.31362 14.306C6.29624 14.7853 6.63945 15.2004 7.09816 15.3406C7.37647 15.4257 7.68387 15.5271 8.01428 15.6361C9.13394 16.0055 10.5178 16.4621 11.929 16.6651C12.2188 16.0574 12.4382 15.5632 12.6186 15.1568C13.2055 13.8345 13.3802 13.4409 14.2269 13.091C15.1762 12.6987 16.1481 12.7296 16.9397 12.8793C16.5634 11.1605 16.1081 10.9909 15.316 10.6957C15.0662 10.6027 14.7829 10.4971 14.4581 10.3266C14.3649 10.2686 14.3438 10.2158 14.3241 10.1664C14.304 10.1161 14.2853 10.0693 14.1935 10.024C14.2733 11.4092 14.0167 12.0558 13.1817 12.1093C12.0509 12.1818 10.9474 10.8905 10.6577 9.77045C10.6049 9.79488 10.54 9.83828 10.4623 9.89028Z" fill="#6E7A82"/>
</g>
<defs>
<clipPath id="clip0_7_35">
<rect width="35" height="24" fill="white"/>
</clipPath>
</defs>
</svg>
