<svg width="35" height="24" viewBox="0 0 35 24" fill="none" xmlns="http://www.w3.org/2000/svg">
<g clip-path="url(#clip0_7_10)">
<path fill-rule="evenodd" clip-rule="evenodd" d="M12.327 10.6225C13.6268 13.4138 15.7969 15.731 18.4904 17.232L20.6969 15.1744C20.9677 14.9219 21.3584 14.8482 21.6935 14.9763C22.7664 15.3728 23.9323 15.6076 25.134 15.6495C25.667 15.6681 26.0878 16.1195 26.0692 16.6525L25.9511 20.0346C25.9325 20.5677 25.4812 20.9885 24.9482 20.9699C15.8483 20.6521 8.7309 13.0197 9.04868 3.91979C9.06729 3.38678 9.51862 2.96591 10.0516 2.98453L13.4435 3.10297C13.9765 3.12159 14.3974 3.57291 14.3788 4.10592C14.3365 5.3173 14.4897 6.487 14.8103 7.58492C14.9051 7.92783 14.8144 8.30307 14.5335 8.56495L12.327 10.6225Z" fill="#6E7A82"/>
</g>
<defs>
<clipPath id="clip0_7_10">
<rect width="35" height="24" fill="white"/>
</clipPath>
</defs>
</svg>
