<svg width="23" height="23" viewBox="0 0 23 23" fill="none" xmlns="http://www.w3.org/2000/svg">
<g id="Group 5441">
<circle id="Ellipse 165" cx="11.5" cy="11.5" r="11.5" fill="#85929A" fill-opacity="0.25"/>
<path id="Vector" d="M15.6 10.375V11.625H18V10.375H15.6ZM14.4 14.5063C14.976 14.95 15.726 15.5375 16.32 16C16.56 15.6687 16.8 15.3313 17.04 15C16.446 14.5375 15.696 13.95 15.12 13.5C14.88 13.8375 14.64 14.175 14.4 14.5063ZM17.04 7C16.8 6.66875 16.56 6.33125 16.32 6C15.726 6.4625 14.976 7.05 14.4 7.5C14.64 7.83125 14.88 8.16875 15.12 8.5C15.696 8.05 16.446 7.46875 17.04 7ZM7.2 9.125C6.54 9.125 6 9.6875 6 10.375V11.625C6 12.3125 6.54 12.875 7.2 12.875H7.8V15.375H9V12.875H9.6L12.6 14.75V7.25L9.6 9.125H7.2ZM10.218 10.1937L11.4 9.45625V12.5438L10.218 11.8063L9.93 11.625H7.2V10.375H9.93L10.218 10.1937ZM14.1 11C14.1 10.1687 13.752 9.41875 13.2 8.90625V13.0875C13.752 12.5813 14.1 11.8313 14.1 11Z" fill="#6E7A82"/>
</g>
</svg>
