<svg width="24" height="24" viewBox="0 0 24 24" fill="none" xmlns="http://www.w3.org/2000/svg">
<g id="Icons/My Deals">
<path id="Subtract" fill-rule="evenodd" clip-rule="evenodd" d="M8.22 2H15.78C19.56 2 20.5 3.01 20.49 7.04V18.29C20.49 20.95 19.04 21.58 17.26 19.68C16.44 18.8 15.19 18.87 14.47 19.83L13.46 21.18C12.65 22.25 11.34 22.25 10.53 21.18L9.52 19.83C8.81 18.88 7.56 18.81 6.74 19.68L6.73 19.69C4.96 21.59 3.5 20.96 3.5 18.3V7.04C3.5 3.01 4.44 2 8.22 2ZM8 11C8 8.79 9.79 7 12 7C14.21 7 16 8.79 16 11C16 11.75 15.79 12.46 15.42 13.06C14.73 14.22 13.46 15 12 15C10.54 15 9.27 14.22 8.58 13.06C8.21 12.46 8 11.75 8 11ZM11.84 12.64L13.97 10.67C14.27 10.39 14.29 9.91 14.01 9.61C13.73 9.31 13.25 9.29 12.95 9.57L11.35 11.05L10.87 10.57C10.58 10.28 10.1 10.28 9.81 10.57C9.52 10.86 9.52 11.34 9.81 11.63L10.8 12.62C10.95 12.77 11.14 12.84 11.33 12.84C11.51 12.84 11.7 12.77 11.84 12.64Z" fill="#2A9BB7"/>
</g>
</svg>
