<svg width="24" height="24" viewBox="0 0 24 24" fill="none" xmlns="http://www.w3.org/2000/svg">
<g id="Icons/Offer Received">
<path id="Subtract" fill-rule="evenodd" clip-rule="evenodd" d="M2 21V7V6C2 3.79 3 2 6 2H7H18C16.9 2 16 2.9 16 4V21C16 21.82 15.06 22.29 14.4 21.8L12.69 20.52C12.3 20.22 11.74 20.26 11.39 20.61L9.71 22.29C9.32 22.68 8.68 22.68 8.29 22.29L6.63 20.62C6.27 20.26 5.71 20.22 5.31 20.52L3.6 21.8C2.94 22.3 2 21.83 2 21ZM6 12.97C6 14.24 6.76 15 8.03 15H10.97C12.24 15 13 14.24 13 12.97V10.03C13 8.76 12.24 8 10.97 8H8.03C6.76 8 6 8.76 6 10.03V12.97ZM10.75 11.51C10.91 11.51 11.07 11.57 11.19 11.69C11.44 11.93 11.44 12.33 11.2 12.57L9.95 13.82C9.94575 13.82 9.94331 13.82 9.94113 13.8208C9.93819 13.8218 9.93575 13.8242 9.93 13.83C9.88 13.88 9.82 13.92 9.75 13.95H9.73C9.66 13.98 9.6 13.99 9.53 13.99H9.47C9.41 13.99 9.36 13.98 9.31 13.96C9.3 13.955 9.29 13.9525 9.28 13.95C9.27 13.9475 9.26 13.945 9.25 13.94C9.18 13.91 9.11 13.87 9.06 13.82L7.81 12.57C7.57 12.33 7.57 11.93 7.81 11.69C8.05 11.45 8.45 11.45 8.69 11.69L8.87 11.87V9.63C8.87 9.28 9.15 9 9.5 9C9.85 9 10.13 9.28 10.13 9.63V11.87L10.31 11.69C10.43 11.57 10.59 11.51 10.75 11.51Z" fill="#2A9BB7"/>
<path id="Vector" d="M18.01 2V3.5C18.67 3.5 19.3 3.77 19.76 4.22C20.24 4.71 20.5 5.34 20.5 6V8.42C20.5 9.16 20.17 9.5 19.42 9.5H17.5V4.01C17.5 3.73 17.73 3.5 18.01 3.5V2ZM18.01 2C16.9 2 16 2.9 16 4.01V11H19.42C21 11 22 10 22 8.42V6C22 4.9 21.55 3.9 20.83 3.17C20.1 2.45 19.11 2.01 18.01 2C18.02 2 18.01 2 18.01 2Z" fill="#2A9BB7"/>
</g>
</svg>
