<svg width="23" height="23" viewBox="0 0 23 23" fill="none" xmlns="http://www.w3.org/2000/svg">
<circle cx="11.5" cy="11.5" r="11.5" fill="#C0E1EA" fill-opacity="0.75"/>
<path d="M5.50977 10.9017V9.70378C5.50977 7.60742 6.70768 6.70898 8.50456 6.70898H14.4941C16.291 6.70898 17.4889 7.60742 17.4889 9.70378V13.2975C17.4889 15.3939 16.291 16.2923 14.4941 16.2923H11.4993" stroke="#2A9BB7" stroke-miterlimit="10" stroke-linecap="round" stroke-linejoin="round"/>
<path d="M11.4993 12.9967C12.3263 12.9967 12.9967 12.3263 12.9967 11.4993C12.9967 10.6724 12.3263 10.002 11.4993 10.002C10.6724 10.002 10.002 10.6724 10.002 11.4993C10.002 12.3263 10.6724 12.9967 11.4993 12.9967Z" stroke="#2A9BB7" stroke-miterlimit="10" stroke-linecap="round" stroke-linejoin="round"/>
<path d="M15.3926 10.002V12.9967" stroke="#2A9BB7" stroke-miterlimit="10" stroke-linecap="round" stroke-linejoin="round"/>
<path d="M5.50983 13.5959H8.70828C9.09161 13.5959 9.40306 13.9074 9.40306 14.2907V15.0574" stroke="#2A9BB7" stroke-miterlimit="10" stroke-linecap="round" stroke-linejoin="round"/>
<path d="M6.24048 12.8652L5.50977 13.5959L6.24048 14.3267" stroke="#2A9BB7" stroke-miterlimit="10" stroke-linecap="round" stroke-linejoin="round"/>
<path d="M9.40306 16.7585H6.2046C5.82127 16.7585 5.50983 16.447 5.50983 16.0637V15.297" stroke="#2A9BB7" stroke-miterlimit="10" stroke-linecap="round" stroke-linejoin="round"/>
<path d="M8.67383 17.4888L9.40454 16.7581L8.67383 16.0273" stroke="#2A9BB7" stroke-miterlimit="10" stroke-linecap="round" stroke-linejoin="round"/>
</svg>
