<svg width="26" height="26" viewBox="0 0 26 26" fill="none" xmlns="http://www.w3.org/2000/svg">
<g id="Frame">
<path id="Vector" fill-rule="evenodd" clip-rule="evenodd" d="M14.4337 12.8183C16.8484 12.7005 18.5966 9.72449 18.4455 6.64397C18.2944 3.56348 16.2427 1.28149 13.5756 1.41154C10.9085 1.5416 9.14817 3.75011 9.29927 6.83061C9.45038 9.9111 12.0191 12.936 14.4337 12.8183ZM10.5194 12.8788C10.6544 12.7886 10.7671 12.7131 10.8588 12.6708C11.3619 14.6159 13.2784 16.8585 15.2421 16.7327C16.6923 16.6398 17.138 15.5169 16.9994 13.1111C17.1588 13.1898 17.1913 13.2711 17.2262 13.3583C17.2605 13.4441 17.2971 13.5358 17.459 13.6366C18.0231 13.9328 18.5151 14.1161 18.9488 14.2777C20.6641 14.9168 21.4699 15.217 22.2342 20.8147C22.3405 21.5929 22.1027 22.4036 21.4948 22.9007C17.1552 26.4497 10.5822 24.2812 6.26787 22.8577C5.78573 22.6987 5.33179 22.5489 4.91233 22.4175C3.9826 22.1262 3.28031 21.2768 3.32422 20.3034C3.45597 17.3824 4.00281 15.9895 5.03487 14.7888C6.19676 13.739 7.30013 13.681 8.31936 13.6274C8.43978 13.6211 8.55904 13.6148 8.67707 13.607C9.51391 13.5514 10.1161 13.1486 10.5194 12.8788Z" fill="#217B91"/>
</g>
</svg>
