<svg width="20" height="20" viewBox="0 0 20 20" fill="none"
    xmlns="http://www.w3.org/2000/svg">
    <g id="Frame">
        <path id="Vector" fill-rule="evenodd" clip-rule="evenodd" d="M16.6673 5.00065C16.6673 5.92113 15.9212 6.66732 15.0007 6.66732C14.0802 6.66732 13.334 5.92113 13.334 5.00065C13.334 4.08018 14.0802 3.33398 15.0007 3.33398C15.9212 3.33398 16.6673 4.08018 16.6673 5.00065ZM15.0007 11.6673C15.9212 11.6673 16.6673 10.9212 16.6673 10.0007C16.6673 9.08015 15.9212 8.33398 15.0007 8.33398C14.0802 8.33398 13.334 9.08015 13.334 10.0007C13.334 10.9212 14.0802 11.6673 15.0007 11.6673ZM6.66732 15.0007C6.66732 15.9212 5.92113 16.6673 5.00065 16.6673C4.08018 16.6673 3.33398 15.9212 3.33398 15.0007C3.33398 14.0802 4.08018 13.334 5.00065 13.334C5.92113 13.334 6.66732 14.0802 6.66732 15.0007ZM10.0007 16.6673C10.9212 16.6673 11.6673 15.9212 11.6673 15.0007C11.6673 14.0802 10.9212 13.334 10.0007 13.334C9.08015 13.334 8.33398 14.0802 8.33398 15.0007C8.33398 15.9212 9.08015 16.6673 10.0007 16.6673ZM15.0007 16.6673C15.9212 16.6673 16.6673 15.9212 16.6673 15.0007C16.6673 14.0802 15.9212 13.334 15.0007 13.334C14.0802 13.334 13.334 14.0802 13.334 15.0007C13.334 15.9212 14.0802 16.6673 15.0007 16.6673ZM11.6673 10.0007C11.6673 10.9212 10.9212 11.6673 10.0007 11.6673C9.08015 11.6673 8.33398 10.9212 8.33398 10.0007C8.33398 9.08015 9.08015 8.33398 10.0007 8.33398C10.9212 8.33398 11.6673 9.08015 11.6673 10.0007ZM5.00065 11.6673C5.92113 11.6673 6.66732 10.9212 6.66732 10.0007C6.66732 9.08015 5.92113 8.33398 5.00065 8.33398C4.08018 8.33398 3.33398 9.08015 3.33398 10.0007C3.33398 10.9212 4.08018 11.6673 5.00065 11.6673ZM10.0007 6.66732C10.9212 6.66732 11.6673 5.92113 11.6673 5.00065C11.6673 4.08018 10.9212 3.33398 10.0007 3.33398C9.08015 3.33398 8.33398 4.08018 8.33398 5.00065C8.33398 5.92113 9.08015 6.66732 10.0007 6.66732ZM6.66732 5.00065C6.66732 5.92113 5.92113 6.66732 5.00065 6.66732C4.08018 6.66732 3.33398 5.92113 3.33398 5.00065C3.33398 4.08018 4.08018 3.33398 5.00065 3.33398C5.92113 3.33398 6.66732 4.08018 6.66732 5.00065Z" fill="white"/>
    </g>
</svg>
