<svg width="39" height="39" viewBox="0 0 39 39" fill="none" xmlns="http://www.w3.org/2000/svg">
<g id="logo">
<path id="Combined Shape" fill-rule="evenodd" clip-rule="evenodd" d="M38.4689 19.235C38.4689 8.6114 29.8546 0 19.2288 0C8.82824 0 0.355052 8.24967 0 18.5612V19.9086C0.351424 30.1135 8.65594 38.3001 18.9106 38.4663L19.2043 38.4687L19.2532 38.4689C29.8679 38.4557 38.4689 29.849 38.4689 19.235ZM19.8617 8.17393C19.5345 8.13933 19.2022 8.12115 18.8655 8.12115C13.7661 8.12115 9.48397 12.1611 9.6318 17.1409C9.82615 23.6815 16.1327 28.4409 22.5764 31.4869C22.8768 31.6293 23.2091 31.3656 22.9927 31.0208C22.8431 30.7824 22.6037 30.4526 22.3242 30.0675C21.5974 29.0665 20.6001 27.6927 20.208 26.5836C20.111 26.3094 20.2719 26.0392 20.5638 25.9842C22.4256 25.6365 28.0987 24.0126 28.0987 17.1409C28.0987 12.4882 24.4925 8.65942 19.8617 8.17393ZM14.6753 17.3225C14.6753 15.0984 16.5208 13.2954 18.7969 13.2954C21.0739 13.2954 22.9192 15.0984 22.9192 17.3225C22.9192 19.5463 21.0739 21.349 18.7969 21.349C16.5208 21.349 14.6753 19.5463 14.6753 17.3225Z" fill="#3FAE29"/>
</g>
</svg>
