<svg width="34" height="34" viewBox="0 0 34 34" fill="none" xmlns="http://www.w3.org/2000/svg">
<g id="Frame">
<path id="Vector" d="M0 17C0 7.61116 7.61116 0 17 0C26.3888 0 34 7.61116 34 17C34 26.3888 26.3888 34 17 34C7.61116 34 0 26.3888 0 17Z" fill="#B6BEC2"/>
<path id="Vector_2" d="M27.9998 21.0046C26.2624 25.1154 22.1927 28.0001 17.4493 28.0001C11.1261 28.0001 6.00012 22.8742 6.00012 16.5511C6.00012 11.8072 8.88518 7.73728 12.9964 6.00008C12.9964 6.00008 9.95961 13.2593 15.1594 18.4592C20.3592 23.6589 27.9998 21.0046 27.9998 21.0046Z" fill="white"/>
</g>
</svg>
