<svg width="90" height="14" viewBox="0 0 90 14" fill="none" xmlns="http://www.w3.org/2000/svg">
<g id="Phone.com">
<path id="Clip 3" fill-rule="evenodd" clip-rule="evenodd" d="M26.618 4.00108C29.4369 4.00108 31.4051 5.98065 31.4051 8.81448C31.4051 11.6146 29.3919 13.646 26.618 13.646C23.8442 13.646 21.8309 11.6146 21.8309 8.81448C21.8309 5.98065 23.7992 4.00108 26.618 4.00108ZM47.5931 4.00108C50.3329 4.00108 52.1739 6.00221 52.1739 8.98122V9.46181C52.1739 9.53815 52.1111 9.60039 52.0335 9.60039H45.2245C45.401 10.6391 46.1977 11.7799 47.9302 11.7799C48.8508 11.7799 49.8267 11.4045 50.4164 10.8229C50.4427 10.7967 50.479 10.7824 50.5157 10.7824C50.5201 10.7824 50.5241 10.7824 50.5283 10.7827C50.5698 10.7866 50.6076 10.8083 50.6313 10.8419L51.5303 12.1171C51.5698 12.1734 51.5619 12.2503 51.5111 12.2974C50.5856 13.1546 49.212 13.646 47.743 13.646C44.869 13.646 42.8616 11.6593 42.8616 8.81448C42.8616 6.07037 44.8957 4.00108 47.5931 4.00108ZM61.8791 4.00108C63.4361 4.00108 64.64 4.5547 65.4586 5.64647C65.5019 5.70367 65.4936 5.78331 65.4403 5.83147L64.1477 6.99522C64.1213 7.01869 64.0876 7.03156 64.053 7.03156C64.0479 7.03156 64.0426 7.03121 64.0379 7.03069C63.9976 7.02652 63.9612 7.00582 63.9384 6.97313C63.4649 6.31658 62.8217 5.997 61.9732 5.997C60.4209 5.997 59.378 7.12928 59.378 8.81448C59.378 10.4846 60.4454 11.6511 61.9732 11.6511C62.7925 11.6511 63.454 11.3103 63.9384 10.6377C63.9619 10.6052 63.9987 10.5838 64.0389 10.58C64.0433 10.5797 64.0482 10.5793 64.053 10.5793C64.0883 10.5793 64.1229 10.5927 64.1495 10.6174L65.4421 11.8177C65.4946 11.8665 65.5011 11.9456 65.4576 12.0023C64.6217 13.0929 63.418 13.646 61.8791 13.646C59.0942 13.646 57.0734 11.6146 57.0734 8.81448C57.0734 6.02534 59.0942 4.00108 61.8791 4.00108ZM70.7651 4.00108C73.584 4.00108 75.5524 5.98065 75.5524 8.81448C75.5524 11.6146 73.539 13.646 70.7651 13.646C67.9913 13.646 65.9781 11.6146 65.9781 8.81448C65.9781 5.98065 67.9466 4.00108 70.7651 4.00108ZM54.6708 10.7641C55.4583 10.7641 56.1231 11.4111 56.1231 12.1776C56.1231 12.9637 55.4583 13.6277 54.6708 13.6277C53.8841 13.6277 53.2194 12.9637 53.2194 12.1776C53.2194 11.4111 53.8841 10.7641 54.6708 10.7641ZM38.2737 4.00108C40.2491 4.00108 41.337 5.06729 41.337 7.00408V13.286C41.337 13.3627 41.2739 13.4246 41.1962 13.4246H39.2287C39.1514 13.4246 39.0883 13.3627 39.0883 13.286V7.70567C39.0883 6.52384 38.5654 5.997 37.393 5.997C36.4424 5.997 35.6316 6.57722 35.2105 7.08963V13.286C35.2105 13.3627 35.1473 13.4246 35.0701 13.4246H33.1024C33.0249 13.4246 32.9618 13.3627 32.9618 13.286V4.36205C32.9618 4.28519 33.0249 4.22347 33.1024 4.22347H35.0701C35.1473 4.22347 35.2105 4.28519 35.2105 4.36205V5.21386C35.852 4.60721 36.9473 4.00108 38.2737 4.00108ZM87.2551 4.00108C89.0251 4.00108 90 5.00851 90 6.83768V13.286C90 13.3627 89.9367 13.4246 89.8589 13.4246H87.8917C87.8144 13.4246 87.7513 13.3627 87.7513 13.286V7.4659C87.7513 6.49132 87.2943 5.997 86.3929 5.997C85.5616 5.997 84.8032 6.5534 84.435 7.0832V13.286C84.435 13.3627 84.3721 13.4246 84.2943 13.4246H82.3269C82.2498 13.4246 82.1867 13.3627 82.1867 13.286V7.4659C82.1867 6.47759 81.7482 5.997 80.8473 5.997C80.0525 5.997 79.298 6.5381 78.8889 7.08598V13.286C78.8889 13.3627 78.8262 13.4246 78.7485 13.4246H76.7817C76.7036 13.4246 76.6405 13.3627 76.6405 13.286V4.36205C76.6405 4.28519 76.7036 4.22347 76.7817 4.22347H78.7485C78.8262 4.22347 78.8889 4.28519 78.8889 4.36205V5.19126C79.4402 4.64616 80.4886 4.00108 81.7092 4.00108C82.9178 4.00108 83.8185 4.5321 84.2219 5.46876C84.8057 4.72527 85.9337 4.00108 87.2551 4.00108ZM6.52915 0.82297C8.62321 0.82297 10.7357 2.05975 10.7357 4.8235C10.7357 7.16803 9.00599 8.80525 6.52915 8.80525H3.35335V13.286C3.35335 13.3627 3.29043 13.4246 3.21292 13.4246H1.0208C0.94329 13.4246 0.880371 13.3627 0.880371 13.286V0.961896C0.880371 0.885217 0.94329 0.82297 1.0208 0.82297H6.52915ZM14.0576 0.822968C14.1351 0.822968 14.1978 0.885215 14.1978 0.961894V5.21176C14.8516 4.5872 15.9249 4.00106 17.2427 4.00106C19.2466 4.00106 20.3058 5.02658 20.3058 6.96686V13.286C20.3058 13.3627 20.2428 13.4246 20.1656 13.4246H18.1979C18.1204 13.4246 18.0575 13.3627 18.0575 13.286V7.66897C18.0575 6.4814 17.5719 5.99698 16.3808 5.99698C15.4042 5.99698 14.6029 6.57651 14.1978 7.08787V13.286C14.1978 13.3627 14.1351 13.4246 14.0576 13.4246H12.0904C12.0127 13.4246 11.9496 13.3627 11.9496 13.286V0.961894C11.9496 0.885215 12.0127 0.822968 12.0904 0.822968H14.0576ZM26.6182 5.997C24.9257 5.997 24.1543 7.45738 24.1543 8.81448C24.1543 10.1803 24.9257 11.6511 26.6182 11.6511C27.8446 11.6511 29.082 10.7737 29.082 8.81448C29.082 7.45738 28.3112 5.997 26.6182 5.997ZM70.7653 5.997C69.0723 5.997 68.3018 7.45738 68.3018 8.81448C68.3018 10.1803 69.0723 11.6511 70.7653 11.6511C72.4672 11.6511 73.2293 10.2265 73.2293 8.81448C73.2293 7.45738 72.4579 5.997 70.7653 5.997ZM47.5737 5.86763C46.1097 5.86763 45.3329 6.91332 45.1997 7.93692H49.988C49.8887 7.10597 49.2922 5.86763 47.5737 5.86763ZM6.22961 3.00359H3.35328V6.62525H6.22961C7.41188 6.62525 8.20662 5.90106 8.20662 4.82355C8.20662 3.73509 7.41188 3.00359 6.22961 3.00359Z" fill="#364047"/>
<mask id="mask0_7_187" style="mask-type:luminance" maskUnits="userSpaceOnUse" x="0" y="0" width="90" height="14">
<path id="Clip 3_2" fill-rule="evenodd" clip-rule="evenodd" d="M26.618 4.00108C29.4369 4.00108 31.4051 5.98065 31.4051 8.81448C31.4051 11.6146 29.3919 13.646 26.618 13.646C23.8442 13.646 21.8309 11.6146 21.8309 8.81448C21.8309 5.98065 23.7992 4.00108 26.618 4.00108ZM47.5931 4.00108C50.3329 4.00108 52.1739 6.00221 52.1739 8.98122V9.46181C52.1739 9.53815 52.1111 9.60039 52.0335 9.60039H45.2245C45.401 10.6391 46.1977 11.7799 47.9302 11.7799C48.8508 11.7799 49.8267 11.4045 50.4164 10.8229C50.4427 10.7967 50.479 10.7824 50.5157 10.7824C50.5201 10.7824 50.5241 10.7824 50.5283 10.7827C50.5698 10.7866 50.6076 10.8083 50.6313 10.8419L51.5303 12.1171C51.5698 12.1734 51.5619 12.2503 51.5111 12.2974C50.5856 13.1546 49.212 13.646 47.743 13.646C44.869 13.646 42.8616 11.6593 42.8616 8.81448C42.8616 6.07037 44.8957 4.00108 47.5931 4.00108ZM61.8791 4.00108C63.4361 4.00108 64.64 4.5547 65.4586 5.64647C65.5019 5.70367 65.4936 5.78331 65.4403 5.83147L64.1477 6.99522C64.1213 7.01869 64.0876 7.03156 64.053 7.03156C64.0479 7.03156 64.0426 7.03121 64.0379 7.03069C63.9976 7.02652 63.9612 7.00582 63.9384 6.97313C63.4649 6.31658 62.8217 5.997 61.9732 5.997C60.4209 5.997 59.378 7.12928 59.378 8.81448C59.378 10.4846 60.4454 11.6511 61.9732 11.6511C62.7925 11.6511 63.454 11.3103 63.9384 10.6377C63.9619 10.6052 63.9987 10.5838 64.0389 10.58C64.0433 10.5797 64.0482 10.5793 64.053 10.5793C64.0883 10.5793 64.1229 10.5927 64.1495 10.6174L65.4421 11.8177C65.4946 11.8665 65.5011 11.9456 65.4576 12.0023C64.6217 13.0929 63.418 13.646 61.8791 13.646C59.0942 13.646 57.0734 11.6146 57.0734 8.81448C57.0734 6.02534 59.0942 4.00108 61.8791 4.00108ZM70.7651 4.00108C73.584 4.00108 75.5524 5.98065 75.5524 8.81448C75.5524 11.6146 73.539 13.646 70.7651 13.646C67.9913 13.646 65.9781 11.6146 65.9781 8.81448C65.9781 5.98065 67.9466 4.00108 70.7651 4.00108ZM54.6708 10.7641C55.4583 10.7641 56.1231 11.4111 56.1231 12.1776C56.1231 12.9637 55.4583 13.6277 54.6708 13.6277C53.8841 13.6277 53.2194 12.9637 53.2194 12.1776C53.2194 11.4111 53.8841 10.7641 54.6708 10.7641ZM38.2737 4.00108C40.2491 4.00108 41.337 5.06729 41.337 7.00408V13.286C41.337 13.3627 41.2739 13.4246 41.1962 13.4246H39.2287C39.1514 13.4246 39.0883 13.3627 39.0883 13.286V7.70567C39.0883 6.52384 38.5654 5.997 37.393 5.997C36.4424 5.997 35.6316 6.57722 35.2105 7.08963V13.286C35.2105 13.3627 35.1473 13.4246 35.0701 13.4246H33.1024C33.0249 13.4246 32.9618 13.3627 32.9618 13.286V4.36205C32.9618 4.28519 33.0249 4.22347 33.1024 4.22347H35.0701C35.1473 4.22347 35.2105 4.28519 35.2105 4.36205V5.21386C35.852 4.60721 36.9473 4.00108 38.2737 4.00108ZM87.2551 4.00108C89.0251 4.00108 90 5.00851 90 6.83768V13.286C90 13.3627 89.9367 13.4246 89.8589 13.4246H87.8917C87.8144 13.4246 87.7513 13.3627 87.7513 13.286V7.4659C87.7513 6.49132 87.2943 5.997 86.3929 5.997C85.5616 5.997 84.8032 6.5534 84.435 7.0832V13.286C84.435 13.3627 84.3721 13.4246 84.2943 13.4246H82.3269C82.2498 13.4246 82.1867 13.3627 82.1867 13.286V7.4659C82.1867 6.47759 81.7482 5.997 80.8473 5.997C80.0525 5.997 79.298 6.5381 78.8889 7.08598V13.286C78.8889 13.3627 78.8262 13.4246 78.7485 13.4246H76.7817C76.7036 13.4246 76.6405 13.3627 76.6405 13.286V4.36205C76.6405 4.28519 76.7036 4.22347 76.7817 4.22347H78.7485C78.8262 4.22347 78.8889 4.28519 78.8889 4.36205V5.19126C79.4402 4.64616 80.4886 4.00108 81.7092 4.00108C82.9178 4.00108 83.8185 4.5321 84.2219 5.46876C84.8057 4.72527 85.9337 4.00108 87.2551 4.00108ZM6.52915 0.82297C8.62321 0.82297 10.7357 2.05975 10.7357 4.8235C10.7357 7.16803 9.00599 8.80525 6.52915 8.80525H3.35335V13.286C3.35335 13.3627 3.29043 13.4246 3.21292 13.4246H1.0208C0.94329 13.4246 0.880371 13.3627 0.880371 13.286V0.961896C0.880371 0.885217 0.94329 0.82297 1.0208 0.82297H6.52915ZM14.0576 0.822968C14.1351 0.822968 14.1978 0.885215 14.1978 0.961894V5.21176C14.8516 4.5872 15.9249 4.00106 17.2427 4.00106C19.2466 4.00106 20.3058 5.02658 20.3058 6.96686V13.286C20.3058 13.3627 20.2428 13.4246 20.1656 13.4246H18.1979C18.1204 13.4246 18.0575 13.3627 18.0575 13.286V7.66897C18.0575 6.4814 17.5719 5.99698 16.3808 5.99698C15.4042 5.99698 14.6029 6.57651 14.1978 7.08787V13.286C14.1978 13.3627 14.1351 13.4246 14.0576 13.4246H12.0904C12.0127 13.4246 11.9496 13.3627 11.9496 13.286V0.961894C11.9496 0.885215 12.0127 0.822968 12.0904 0.822968H14.0576ZM26.6182 5.997C24.9257 5.997 24.1543 7.45738 24.1543 8.81448C24.1543 10.1803 24.9257 11.6511 26.6182 11.6511C27.8446 11.6511 29.082 10.7737 29.082 8.81448C29.082 7.45738 28.3112 5.997 26.6182 5.997ZM70.7653 5.997C69.0723 5.997 68.3018 7.45738 68.3018 8.81448C68.3018 10.1803 69.0723 11.6511 70.7653 11.6511C72.4672 11.6511 73.2293 10.2265 73.2293 8.81448C73.2293 7.45738 72.4579 5.997 70.7653 5.997ZM47.5737 5.86763C46.1097 5.86763 45.3329 6.91332 45.1997 7.93692H49.988C49.8887 7.10597 49.2922 5.86763 47.5737 5.86763ZM6.22961 3.00359H3.35328V6.62525H6.22961C7.41188 6.62525 8.20662 5.90106 8.20662 4.82355C8.20662 3.73509 7.41188 3.00359 6.22961 3.00359Z" fill="white"/>
</mask>
<g mask="url(#mask0_7_187)">
</g>
</g>
</svg>
