<svg width="20" height="20" viewBox="0 0 20 20" fill="none" xmlns="http://www.w3.org/2000/svg">
<g id="Frame">
<path id="Vector" fill-rule="evenodd" clip-rule="evenodd" d="M13.8816 15.5864C12.6937 16.3891 11.2597 16.8581 9.7156 16.8581C5.6151 16.8581 2.29102 13.5507 2.29102 9.47098C2.29102 5.39127 5.6151 2.08398 9.7156 2.08398C13.816 2.08398 17.1401 5.39127 17.1401 9.47098C17.1401 11.3033 16.4696 12.9798 15.3594 14.2708L17.289 16.1875C17.5339 16.4307 17.5341 16.8253 17.2893 17.0687L16.7755 17.5801C16.5308 17.8235 16.1339 17.8237 15.889 17.5804L13.8816 15.5864ZM15.1599 9.47123C15.1599 12.4631 12.7223 14.8884 9.71527 14.8884C6.70827 14.8884 4.27061 12.4631 4.27061 9.47123C4.27061 6.47945 6.70827 4.05411 9.71527 4.05411C12.7223 4.05411 15.1599 6.47945 15.1599 9.47123Z" fill="#6E7A82"/>
</g>
</svg>
